<svg xmlns="http://www.w3.org/2000/svg" viewBox="0 0 24 30" x="0px" y="0px"><title>state_error</title><path d="M14.707,9.293a.99962.99962,0,0,0-1.41406,0L12,10.58594,10.707,9.293A.99989.99989,0,0,0,9.293,10.707L10.58594,12,9.293,13.293A.99989.99989,0,1,0,10.707,14.707L12,13.41406l1.293,1.293A.99989.99989,0,0,0,14.707,13.293L13.41406,12l1.293-1.293A.99962.99962,0,0,0,14.707,9.293ZM12,2A10,10,0,1,0,22,12,10.01114,10.01114,0,0,0,12,2Zm0,18a8,8,0,1,1,8-8A8.00917,8.00917,0,0,1,12,20Z"/><text x="0" y="39" fill="#000000" font-size="5px" font-weight="bold" font-family="'Helvetica Neue', Helvetica, Arial-Unicode, Arial, Sans-serif">Created by kreationspace</text><text x="0" y="44" fill="#000000" font-size="5px" font-weight="bold" font-family="'Helvetica Neue', Helvetica, Arial-Unicode, Arial, Sans-serif">from the Noun Project</text></svg>